# xmcd
#
# Track frame offsets: 
#        150
#        20802
#        45529
#        78773
#        103469
#        115951
#        145622
#        162583
#        185419
#        210448
#        235913
#        249457
#
# Disc length: 3536 seconds
#
# Revision: 0
# Processed by: cddbd v1.5.2PL0 Copyright (c) Steve Scherf et al.
# Submitted via: ExactAudioCopy v0.99pb3
#
DISCID=a10dce0c
DTITLE=Travis 'Moonchild' Haddix - A Dozen Times
DYEAR=2010
DGENRE=Blues
TTITLE0=They Call Me The Moonchild
TTITLE1=First Thing Tuesday Morning
TTITLE2=Job Close To Home
TTITLE3=Caught In The Middle
TTITLE4=No No No
TTITLE5=I've Got A Secret
TTITLE6=If I'm One, You're One Too
TTITLE7=Winners Never Quit
TTITLE8=Down Home Blues
TTITLE9=Scared Half To Death, Twice
TTITLE10=This Foolishness
TTITLE11=A Dozen Times
EXTD=
EXTT0=
EXTT1=
EXTT2=
EXTT3=
EXTT4=
EXTT5=
EXTT6=
EXTT7=
EXTT8=
EXTT9=
EXTT10=
EXTT11=
PLAYORDER=
